# xmcd
#
# Track frame offsets: 
#        150
#        16944
#        36606
#        52341
#        71380
#        83757
#        97584
#        114469
#        128561
#        145076
#        157305
#        181874
#        194429
#        211604
#
# Disc length: 2927 seconds
#
# Revision: 4
# Processed by: cddbd v1.5.2PL0 Copyright (c) Steve Scherf et al.
# Submitted via: ExactAudioCopy v1.0b1
#
DISCID=bb0b6d0e
DTITLE=Shakin' Dudi - Platynowa płyta
DYEAR=1999
DGENRE=Blues
TTITLE0=Gdy wracam późno
TTITLE1=Tak dobrze mi tu
TTITLE2=Mniam
TTITLE3=Zostałaś babą
TTITLE4=Taka przebojowa
TTITLE5=Płać, płać, płać
TTITLE6=Gdybyś miała
TTITLE7=To my ułani
TTITLE8=Poopelina
TTITLE9=Ojciec Basi
TTITLE10=Kopciuszku wróć
TTITLE11=Skok w bok
TTITLE12=Lady głupota
TTITLE13=Nalej mi
EXTD=
EXTT0=
EXTT1=
EXTT2=
EXTT3=
EXTT4=
EXTT5=
EXTT6=
EXTT7=
EXTT8=
EXTT9=
EXTT10=
EXTT11=
EXTT12=
EXTT13=
PLAYORDER=
